<?xml version="1.0" encoding="UTF-8" standalone="no"?>
<svg width="50px" height="50px" viewBox="0 0 50 50" version="1.1" xmlns="http://www.w3.org/2000/svg" xmlns:xlink="http://www.w3.org/1999/xlink">
    <!-- Generator: Sketch 49.3 (51167) - http://www.bohemiancoding.com/sketch -->
    <title>ic</title>
    <desc>Created with Sketch.</desc>
    <defs></defs>
    <g id="Page-1" stroke="none" stroke-width="1" fill="none" fill-rule="evenodd">
        <g id="1-Eingaben:-Desktop" transform="translate(-43.000000, -274.000000)" fill-rule="nonzero">
            <g id="Page" transform="translate(-21.000000, 13.000000)">
                <g id="Selector" transform="translate(0.000000, 204.000000)">
                    <g id="sel" transform="translate(16.000000, 56.000000)">
                        <g id="sel-privat" transform="translate(48.000000, 1.000000)">
                            <g id="Group-5">
                                <g id="ic">
                                    <path d="M50,0 L10.6401897,0 C4.77178423,0 0,4.78312537 0,10.6654783 L0,50 C0,40.0475342 2.6081802,37.4331551 18.0794309,37.4331551 C33.7285122,37.4331551 36.959099,22.459893 36.9887374,18.7462864 C37.1369295,4.66428996 37.966805,0 50,0 Z" class="background" id="Shape" fill="#13AFD1"></path>
                                    <polygon id="Shape" fill="#FFFFFF" points="19.8033045 14.516129 19.8033045 25.0180069 21.5053763 25.609662 21.5053763 26.8817204 15.5913978 26.8817204 15.5913978 25.609662 17.5242591 25.0180069 17.5242591 16.4094253 15.5913978 15.9361013 15.5913978 14.6640428"></polygon>
                                    <path d="M18.2795699,9.13978495 C19.3548387,9.13978495 19.8924731,9.72629521 19.8924731,10.8699902 C19.8924731,11.3391984 19.7027198,11.7204301 19.3548387,11.9843597 C18.9753321,12.2482893 18.5958254,12.3655914 18.1846932,12.3655914 C17.7419355,12.3655914 17.3624288,12.2189638 17.0777989,11.9257087 C16.7931689,11.6324536 16.6666667,11.2512219 16.6666667,10.7233627 C16.6666667,10.2248289 16.8247944,9.81427175 17.14105,9.52101662 C17.4256799,9.28641251 17.8051866,9.13978495 18.2795699,9.13978495 Z" id="Shape" fill="#FFFFFF"></path>
                                </g>
                            </g>
                        </g>
                    </g>
                </g>
            </g>
        </g>
    </g>
</svg>