<?xml version="1.0" encoding="UTF-8" standalone="no"?>
<svg width="16px" height="17px" viewBox="0 0 16 17" version="1.1" xmlns="http://www.w3.org/2000/svg" xmlns:xlink="http://www.w3.org/1999/xlink">
    <!-- Generator: Sketch 50.2 (55047) - http://www.bohemiancoding.com/sketch -->
    <title>ic-tarif-download-5</title>
    <desc>Created with Sketch.</desc>
    <defs></defs>
    <g id="Page-1" stroke="none" stroke-width="1" fill="none" fill-rule="evenodd">
        <g id="2-Auswahl:-Desktop--Copy" transform="translate(-468.000000, -30.000000)" fill="#845E2D" fill-rule="nonzero">
            <g id="ic-tarif-download-5" transform="translate(468.000000, 30.000000)">
                <path d="M14.9658537,11.297561 C14.4585366,11.2682927 14.0292683,11.6487805 14,12.1560976 C14,12.195122 14,12.2243902 14,12.2634146 L14,12.3609756 C14,13.902439 13.902439,14 13.7073171,14.097561 C13.0341463,14.3902439 11.2,14.3902439 8.0097561,14.3902439 C4.91707317,14.3902439 2.99512195,14.3902439 2.31219512,14.097561 C2.11707317,14 2.0195122,13.804878 2.0195122,12.3609756 L2.0195122,12.2634146 C2.04878049,11.7560976 1.66829268,11.3268293 1.16097561,11.297561 C1.12195122,11.297561 1.09268293,11.297561 1.05365854,11.297561 C0.546341463,11.2682927 0.117073171,11.6487805 0.087804878,12.1560976 C0.087804878,12.195122 0.087804878,12.2243902 0.087804878,12.2634146 L0.087804878,12.3609756 C0.087804878,14 0.087804878,15.2585366 1.53170732,15.9317073 C2.59512195,16.4097561 4.23414634,16.4097561 8,16.4097561 C11.6682927,16.4097561 13.404878,16.4097561 14.4682927,15.9317073 C15.9121951,15.2585366 15.9121951,14 15.9121951,12.3609756 L15.9121951,12.2634146 C15.8926829,11.7463415 15.4829268,11.3365854 14.9658537,11.297561 Z" id="Pfad_200"></path>
                <path d="M7.23902439,12.1658537 C7.41463415,12.4195122 7.70731707,12.5658537 8.0097561,12.5560976 C8.30243902,12.5268293 8.58536585,12.3902439 8.7804878,12.1658537 L11.8731707,7.43414634 C12.0682927,7.14146341 12.0682927,6.76097561 11.8731707,6.46829268 C11.7073171,6.19512195 11.4243902,6.0097561 11.102439,5.9902439 L8.97560976,5.9902439 L8.97560976,0.975609756 C8.97560976,0.43902439 8.54634146,0.00975609756 8.0097561,0.00975609756 C7.50243902,-0.0195121951 7.07317073,0.36097561 7.04390244,0.868292683 C7.04390244,0.907317073 7.04390244,0.936585366 7.04390244,0.975609756 L7.04390244,5.9902439 L4.82926829,5.9902439 C4.49756098,5.9902439 4.20487805,6.17560976 4.05853659,6.46829268 C3.86341463,6.76097561 3.86341463,7.14146341 4.05853659,7.43414634 L7.23902439,12.1658537 Z" id="Pfad_201"></path>
            </g>
        </g>
    </g>
</svg>