<?xml version="1.0" encoding="UTF-8" standalone="no"?>
<svg width="80px" height="80px" viewBox="0 0 80 80" version="1.1" xmlns="http://www.w3.org/2000/svg" xmlns:xlink="http://www.w3.org/1999/xlink">
    <!-- Generator: Sketch 50 (54983) - http://www.bohemiancoding.com/sketch -->
    <title>sel-ic-sonst-1</title>
    <desc>Created with Sketch.</desc>
    <defs></defs>
    <g id="Page-1" stroke="none" stroke-width="1" fill="none" fill-rule="evenodd">
        <g id="Artboard" transform="translate(-1158.000000, -1455.000000)" fill="#FFFFFF">
            <g id="Group-21" transform="translate(795.000000, 1315.000000)">
                <g id="sel-ic-sonst-1" transform="translate(363.000000, 140.000000)">
                    <g id="Group-18" fill-rule="nonzero">
                        <g id="Group-10">
                            <g id="privat">
                                <path d="M40,80 C17.9553467,80 0,62.0446533 0,40 C0,17.9553467 17.9553467,0 40,0 C62.0446533,0 80,17.9553467 80,40 C80,62.0446533 62.0916569,80 40,80 Z M40,2.91421857 C19.5534665,2.91421857 2.91421857,19.5534665 2.91421857,40 C2.91421857,60.4465335 19.5534665,77.0857814 40,77.0857814 C60.4465335,77.0857814 77.0857814,60.4465335 77.0857814,40 C77.0857814,19.5534665 60.4465335,2.91421857 40,2.91421857 Z" id="Shape"></path>
                            </g>
                        </g>
                    </g>
                    <g id="Group-19" transform="translate(21.000000, 16.000000)">
                        <rect id="Rectangle-6" x="0" y="25" width="18" height="18"></rect>
                        <rect id="Rectangle-6" x="0" y="5" width="18" height="18"></rect>
                        <rect id="Rectangle-6" transform="translate(31.000000, 12.000000) rotate(-345.000000) translate(-31.000000, -12.000000) " x="22" y="3" width="18" height="18"></rect>
                        <rect id="Rectangle-6" x="20" y="25" width="18" height="18"></rect>
                    </g>
                </g>
            </g>
        </g>
    </g>
</svg>