<?xml version="1.0" encoding="UTF-8" standalone="no"?>
<svg width="90px" height="81px" viewBox="0 0 90 81" version="1.1" xmlns="http://www.w3.org/2000/svg" xmlns:xlink="http://www.w3.org/1999/xlink">
    <!-- Generator: Sketch 49.3 (51167) - http://www.bohemiancoding.com/sketch -->
    <title>gewerbe</title>
    <desc>Created with Sketch.</desc>
    <defs></defs>
    <g id="Page-1" stroke="none" stroke-width="1" fill="none" fill-rule="evenodd">
        <g id="1-Eingaben:-Desktop" transform="translate(-743.000000, -301.000000)">
            <g id="Page" transform="translate(0.000000, 13.000000)">
                <g id="Selector" transform="translate(0.000000, 203.000000)">
                    <g id="sel" transform="translate(43.000000, 57.000000)">
                        <g id="sel-gewerbe" transform="translate(675.000000, 1.000000)">
                            <g id="gewerbe" transform="translate(25.000000, 27.000000)">
                                <path d="M40,80.0467836 C17.9181287,80.0467836 0,62.0818713 0,40.0467836 C0,18.0116959 17.9649123,0.0467836257 40,0.0467836257 C62.0350877,0.0467836257 80,18.0116959 80,40.0467836 C80,62.0818713 62.0818713,80.0467836 40,80.0467836 Z M40,2.94736842 C19.5555556,2.94736842 2.94736842,19.5555556 2.94736842,40 C2.94736842,60.4444444 19.5555556,77.0526316 40,77.0526316 C60.4444444,77.0526316 77.0526316,60.4444444 77.0526316,40 C77.0994152,19.6023392 60.4444444,2.94736842 40,2.94736842 Z" id="Shape" fill="#4F4F4E" fill-rule="nonzero"></path>
                                <g id="industry_1_" transform="translate(20.238129, 16.152982)" fill="#4F4F4E" fill-rule="nonzero">
                                    <g id="Gruppe_40_1_">
                                        <path d="M0.32748538,12.2105263 C0.32748538,15.1578947 2.71345029,17.497076 5.61403509,17.497076 L25.6842105,17.497076 C27.6959064,17.497076 29.3333333,15.8596491 29.3333333,13.8479532 C29.3333333,11.8362573 27.6959064,10.1988304 25.6842105,10.1988304 L25.3099415,10.1988304 C24.6081871,7.8128655 22.3625731,6.12865497 19.8830409,6.1754386 L19.6023392,6.1754386 C19.0409357,2.76023392 16.0935673,0.233918129 12.6315789,0.233918129 C8.93567251,0.32748538 5.94152047,3.18128655 5.61403509,6.83040936 C2.71345029,6.92397661 0.374269006,9.26315789 0.32748538,12.2105263 Z" id="Pfad_120_1_"></path>
                                    </g>
                                    <path d="M38.4093567,25.5438596 L33.3567251,30.7368421 C33.1695906,30.9707602 32.8421053,30.9707602 32.6549708,30.7836257 C32.5146199,30.6900585 32.4678363,30.502924 32.4678363,30.3157895 L32.4678363,25.9181287 C32.4678363,25.4035088 31.8128655,25.122807 31.5789474,25.5438596 L26.3859649,30.7368421 C26.1988304,30.9707602 25.871345,30.9707602 25.6842105,30.7836257 C25.5438596,30.6900585 25.497076,30.502924 25.497076,30.3157895 L25.497076,26.1520468 C25.497076,25.6374269 24.8421053,25.3567251 24.6081871,25.7777778 L19.5555556,30.8304094 C19.3684211,31.0643275 19.0409357,31.0643275 18.8538012,30.877193 C18.7134503,30.7836257 18.6666667,30.5964912 18.6666667,30.4093567 L18.6666667,26.5263158 C18.6666667,26.0116959 18.0116959,25.7309942 17.7777778,26.1520468 L13.380117,30.6900585 C13.1929825,30.9239766 12.8654971,30.9239766 12.6783626,30.7368421 C12.5380117,30.6432749 12.4912281,30.4561404 12.4912281,30.2690058 L12.4912281,26.619883 C12.4912281,26.1052632 11.8362573,25.8245614 11.6023392,26.245614 L7.06432749,30.6432749 C6.87719298,30.877193 6.5497076,30.877193 6.3625731,30.6900585 C6.22222222,30.5964912 6.1754386,30.4093567 6.1754386,30.2222222 L6.1754386,18.2923977 C3.88304094,18.3391813 1.73099415,17.2163743 0.467836257,15.2982456 L0.467836257,46.7836257 C0.467836257,47.0643275 0.701754386,47.2982456 0.98245614,47.2982456 L38.7836257,47.2982456 C39.0643275,47.2982456 39.2982456,47.0643275 39.2982456,46.7836257 L39.2982456,25.8245614 C39.3918129,25.5906433 39.251462,25.3567251 39.0175439,25.2631579 C38.7368421,25.3099415 38.5497076,25.4035088 38.4093567,25.5438596 Z M5.80116959,34.1052632 L9.96491228,34.1052632 L9.96491228,38.2690058 L5.80116959,38.2690058 L5.80116959,34.1052632 Z M9.91812865,43.4152047 L5.75438596,43.4152047 L5.75438596,39.251462 L9.91812865,39.251462 L9.91812865,43.4152047 Z M11.0877193,34.245614 L15.251462,34.245614 L15.251462,38.4093567 L11.0877193,38.4093567 L11.0877193,34.245614 Z M15.251462,43.5555556 L11.0877193,43.5555556 L11.0877193,39.3918129 L15.251462,39.3918129 L15.251462,43.5555556 Z M26.7602339,34.4795322 L30.9239766,34.4795322 L30.9239766,38.6432749 L26.7602339,38.6432749 L26.7602339,34.4795322 Z M30.9239766,43.9298246 L26.7602339,43.9298246 L26.7602339,39.7660819 L30.9239766,39.7660819 L30.9239766,43.9298246 Z M32.0935673,34.619883 L36.2573099,34.619883 L36.2573099,38.7836257 L32.0935673,38.7836257 L32.0935673,34.619883 Z M36.2105263,43.9298246 L32.0467836,43.9298246 L32.0467836,39.7660819 L36.2105263,39.7660819 L36.2105263,43.9298246 Z" id="Pfad_121_1_"></path>
                                </g>
                                <g id="add-hi-copy-6" transform="translate(65.000000, 29.000000)">
                                    <circle id="Oval-2" stroke="#4F4F4E" stroke-width="2" fill="#E30018" cx="12" cy="12" r="12"></circle>
                                    <g id="Group-6" transform="translate(8.000000, 8.000000)" stroke="#FFFFFF" stroke-linecap="round" stroke-linejoin="round" stroke-width="3">
                                        <path d="M0.266666667,0.266666667 L7.809139,7.809139" id="Line"></path>
                                        <path d="M0.266666667,0.266666667 L7.809139,7.809139" id="Line" transform="translate(4.000000, 4.000000) scale(-1, 1) translate(-4.000000, -4.000000) "></path>
                                    </g>
                                </g>
                            </g>
                        </g>
                    </g>
                </g>
            </g>
        </g>
    </g>
</svg>