<?xml version="1.0" encoding="UTF-8" standalone="no"?>
<svg width="90px" height="80px" viewBox="0 0 90 80" version="1.1" xmlns="http://www.w3.org/2000/svg" xmlns:xlink="http://www.w3.org/1999/xlink">
    <!-- Generator: Sketch 49.3 (51167) - http://www.bohemiancoding.com/sketch -->
    <title>Group 12</title>
    <desc>Created with Sketch.</desc>
    <defs></defs>
    <g id="Page-1" stroke="none" stroke-width="1" fill="none" fill-rule="evenodd">
        <g id="Artboard" transform="translate(-421.000000, -1261.000000)">
            <g id="Group-12" transform="translate(421.000000, 1261.000000)">
                <g id="Group-10" fill="#4F4F4E">
                    <g id="privat" fill-rule="nonzero">
                        <path d="M40,80 C17.9553467,80 0,62.0446533 0,40 C0,17.9553467 17.9553467,0 40,0 C62.0446533,0 80,17.9553467 80,40 C80,62.0446533 62.0916569,80 40,80 Z M40,2.91421857 C19.5534665,2.91421857 2.91421857,19.5534665 2.91421857,40 C2.91421857,60.4465335 19.5534665,77.0857814 40,77.0857814 C60.4465335,77.0857814 77.0857814,60.4465335 77.0857814,40 C77.0857814,19.5534665 60.4465335,2.91421857 40,2.91421857 Z" id="Shape"></path>
                    </g>
                    <path d="M56.1676363,63.9064378 C57.3080104,62.7514606 56.9123975,60.8026025 56.9123975,60.8026025 L56.1317922,55.0237337 L58.9581675,52.0964639 C60.4530001,50.5551667 58.1669417,49.1625562 57.3796986,49.7679236 L55.6551982,51.2707215 L54.5188068,45.0471201 L56.9482416,42.9349721 C59.6099995,40.6767925 57.2124261,38.9961016 55.7985747,40.0156677 L54.0939876,41.3803994 L52.8912182,32.0290666 C60.5260159,23.9880355 63.6935741,20.7063071 61.8124216,18.591504 C59.9179934,16.4620977 56.1437403,20.2270579 48.6987836,27.5525342 L39.1921263,26.222319 L40.8024566,24.2628404 C41.7529896,23.1065356 40.2289507,21.0528003 38.245576,23.1742412 L35.7364876,25.8678605 L29.5155413,24.7314691 L30.792654,23.048123 C31.9595793,21.5612558 30.4142994,19.7557741 28.2955136,21.7657 L25.6364109,24.4407335 C25.5541022,24.5509209 20.1788117,23.567199 20.1788117,23.567199 C17.543605,22.9618316 16.5797964,24.4686122 16.5797964,24.4686122 L15,26.3059553 L34.4514095,33.2836108 C36.1626343,33.8624269 38.0225459,35.3280532 37.802171,37.7774015 C37.6654323,39.0717725 35.4882338,42.3415528 34.971813,42.7823027 L27.7910408,50.3507224 C27.6543021,50.5432186 18.4556387,49.1864523 18.4556387,49.1864523 C18.1821614,49.1864523 15.078326,51.5853533 15.078326,51.5853533 L23.5003668,56.3818276 L22.4144227,58.7488671 L24.5411739,57.364222 L29.3509239,66 L31.6874295,62.7634087 C31.3356261,61.2194564 30.4381955,53.1346158 30.5191767,52.9713259 C30.5191767,52.9713259 36.9618255,46.3866282 37.3521281,46.0109287 C39.606325,43.8363854 40.4493257,43.1035723 41.5644761,42.7730098 C42.6796265,42.4424474 44.3125253,43.0066604 46.3808638,46.4198172 C49.2337903,51.1286726 54.1178837,65.8818472 54.1178837,65.8818472 L56.1676363,63.9064378 Z" id="Fill-1"></path>
                </g>
                <g id="del" transform="translate(64.000000, 29.000000)">
                    <circle id="Oval-2" stroke="#C6C6C6" stroke-width="2" fill="#E30018" cx="12.5" cy="12.5" r="12.5"></circle>
                    <g id="Group-7" transform="translate(9.000000, 9.000000)" stroke="#FFFFFF" stroke-linecap="round" stroke-linejoin="round" stroke-width="3">
                        <path d="M0.266666667,0.266666667 L7.809139,7.809139" id="Line"></path>
                        <path d="M0.266666667,0.266666667 L7.809139,7.809139" id="Line" transform="translate(4.000000, 4.000000) scale(-1, 1) translate(-4.000000, -4.000000) "></path>
                    </g>
                </g>
            </g>
        </g>
    </g>
</svg>