<?xml version="1.0" encoding="UTF-8" standalone="no"?>
<svg width="80px" height="80px" viewBox="0 0 80 80" version="1.1" xmlns="http://www.w3.org/2000/svg" xmlns:xlink="http://www.w3.org/1999/xlink">
    <!-- Generator: Sketch 49.3 (51167) - http://www.bohemiancoding.com/sketch -->
    <title>verkehr copy</title>
    <desc>Created with Sketch.</desc>
    <defs></defs>
    <g id="Page-1" stroke="none" stroke-width="1" fill="none" fill-rule="evenodd">
        <g id="1-Eingaben:-Desktop" transform="translate(-338.000000, -301.000000)" fill="#FFFFFF" fill-rule="nonzero">
            <g id="Page" transform="translate(0.000000, 13.000000)">
                <g id="Selector" transform="translate(0.000000, 203.000000)">
                    <g id="sel" transform="translate(43.000000, 57.000000)">
                        <g id="sel-verkehr" transform="translate(270.000000, 1.000000)">
                            <g id="verkehr-copy" transform="translate(25.000000, 27.000000)">
                                <path d="M39.9053254,79.8106509 C17.8934911,79.8106509 0,61.9171598 0,39.9053254 C0,17.8934911 17.8934911,0 39.9053254,0 C61.9171598,0 79.8106509,17.8934911 79.8106509,39.9053254 C79.8106509,61.9171598 61.9171598,79.8106509 39.9053254,79.8106509 Z M39.9053254,2.93491124 C19.5029586,2.93491124 2.93491124,19.5029586 2.93491124,39.9053254 C2.93491124,60.3076923 19.5029586,76.8757396 39.9053254,76.8757396 C60.3076923,76.8757396 76.8757396,60.3076923 76.8757396,39.9053254 C76.8757396,19.5502959 60.3076923,2.93491124 39.9053254,2.93491124 Z" id="Shape"></path>
                                <g id="Gruppe_37" transform="translate(17.041420, 23.195266)">
                                    <path d="M44.4970414,9.98816568 C44.260355,9.75147929 43.9763314,9.56213018 43.6449704,9.56213018 L39.3372781,9.56213018 C38.2011834,6.72189349 36.9230769,3.97633136 35.3609467,2.98224852 C29.9171598,-0.568047337 15.3846154,-0.568047337 9.79881657,2.98224852 C8.23668639,3.97633136 6.81656805,6.81656805 5.82248521,9.56213018 L1.56213018,9.56213018 C1.23076923,9.56213018 0.899408284,9.70414201 0.710059172,9.98816568 C0.473372781,10.2721893 0.378698225,10.6508876 0.426035503,10.9822485 L1.13609467,14.1065089 C1.23076923,14.6272189 1.75147929,15.0059172 2.27218935,14.9585799 L3.55029586,14.9585799 C0.852071006,18.1301775 1.13609467,22.816568 4.1183432,25.6568047 L4.1183432,30.1065089 C4.07100592,31.0059172 4.78106509,31.7633136 5.68047337,31.8106509 C5.72781065,31.8106509 5.77514793,31.8106509 5.82248521,31.8106509 L9.79881657,31.8106509 C10.6982249,31.8579882 11.4556213,31.147929 11.5029586,30.2485207 C11.5029586,30.2011834 11.5029586,30.1538462 11.5029586,30.1065089 L11.5029586,28.4023669 L33.9408284,28.4023669 L33.9408284,30.1065089 C33.8934911,31.0059172 34.6035503,31.7633136 35.5029586,31.8106509 C35.5502959,31.8106509 35.5976331,31.8106509 35.6449704,31.8106509 L39.6213018,31.8106509 C40.5207101,31.8579882 41.2781065,31.147929 41.3254438,30.2485207 C41.3254438,30.2011834 41.3254438,30.1538462 41.3254438,30.1065089 L41.3254438,25.8461538 C42.8402367,24.3786982 43.6923077,22.3905325 43.739645,20.260355 C43.7869822,18.3668639 43.0769231,16.4733728 41.7514793,15.1005917 L43.1715976,15.1005917 C43.6923077,15.1005917 44.1656805,14.7218935 44.3076923,14.2485207 L44.8757396,11.1242604 C44.8284024,10.7455621 44.6390533,10.3668639 44.4970414,9.98816568 Z M11.5029586,5.86982249 C15.9526627,3.0295858 28.9230769,3.0295858 33.183432,5.86982249 C34.035503,6.43786982 35.1715976,8.71005917 36.1656805,11.4556213 L8.52071006,11.4556213 C9.5147929,8.71005917 10.6508876,6.43786982 11.5029586,5.86982249 Z M7.95266272,20.591716 C7.95266272,19.0769231 9.18343195,17.8934911 10.6508876,17.8934911 C12.1656805,17.8934911 13.3491124,19.1242604 13.3491124,20.591716 C13.3491124,22.1065089 12.1183432,23.2899408 10.6508876,23.2899408 C9.18343195,23.2426036 8,22.0591716 7.95266272,20.591716 Z M34.0828402,23.2899408 C32.5680473,23.2899408 31.3846154,22.0591716 31.3846154,20.591716 C31.3846154,19.0769231 32.6153846,17.8934911 34.0828402,17.8934911 C35.5976331,17.8934911 36.7810651,19.1242604 36.7810651,20.591716 C36.7810651,22.0591716 35.5976331,23.2899408 34.0828402,23.2899408 Z" id="Pfad_113"></path>
                                </g>
                            </g>
                        </g>
                    </g>
                </g>
            </g>
        </g>
    </g>
</svg>