<?xml version="1.0" encoding="UTF-8" standalone="no"?>
<svg width="90px" height="80px" viewBox="0 0 90 80" version="1.1" xmlns="http://www.w3.org/2000/svg" xmlns:xlink="http://www.w3.org/1999/xlink">
    <!-- Generator: Sketch 49.3 (51167) - http://www.bohemiancoding.com/sketch -->
    <title>flotte</title>
    <desc>Created with Sketch.</desc>
    <defs></defs>
    <g id="Page-1" stroke="none" stroke-width="1" fill="none" fill-rule="evenodd">
        <g id="1-Eingaben:-Desktop" transform="translate(-878.000000, -300.000000)">
            <g id="Page" transform="translate(0.000000, 13.000000)">
                <g id="Selector" transform="translate(0.000000, 203.000000)">
                    <g id="sel" transform="translate(43.000000, 57.000000)">
                        <g id="sel-flotten" transform="translate(810.000000, 0.000000)">
                            <g id="flotte" transform="translate(25.000000, 27.000000)">
                                <path d="M39.9053254,79.8106509 C17.8934911,79.8106509 0,61.9171598 0,39.9053254 C0,17.8934911 17.8934911,0 39.9053254,0 C61.9171598,0 79.8106509,17.8934911 79.8106509,39.9053254 C79.8106509,61.9171598 61.9171598,79.8106509 39.9053254,79.8106509 Z M39.9053254,2.93491124 C19.5029586,2.93491124 2.93491124,19.5029586 2.93491124,39.9053254 C2.93491124,60.3076923 19.5029586,76.8757396 39.9053254,76.8757396 C60.3076923,76.8757396 76.8757396,60.3076923 76.8757396,39.9053254 C76.8757396,19.5502959 60.3076923,2.93491124 39.9053254,2.93491124 Z" id="Shape" fill="#4F4F4E" fill-rule="nonzero"></path>
                                <g id="Gruppe_37_2_" transform="translate(31.242604, 25.562130)" fill="#4F4F4E" fill-rule="nonzero">
                                    <path d="M39.6686391,8.89940828 C39.4792899,8.66272189 39.1952663,8.52071006 38.9112426,8.52071006 L35.0769231,8.52071006 C34.035503,5.96449704 32.8994083,3.55029586 31.4792899,2.65088757 C26.6035503,-0.520710059 13.5857988,-0.520710059 8.61538462,2.65088757 C7.19526627,3.55029586 5.91715976,6.10650888 5.01775148,8.52071006 L1.18343195,8.52071006 C0.899408284,8.52071006 0.615384615,8.66272189 0.426035503,8.89940828 C0.189349112,9.13609467 0.0946745562,9.46745562 0.189349112,9.79881657 L0.804733728,12.591716 C0.899408284,13.0650888 1.32544379,13.3964497 1.84615385,13.3491124 L2.98224852,13.3491124 C0.568047337,16.1893491 0.804733728,20.3550296 3.50295858,22.9112426 L3.50295858,26.887574 C3.4556213,27.6923077 4.1183432,28.4023669 4.92307692,28.4023669 C4.9704142,28.4023669 5.01775148,28.4023669 5.01775148,28.4023669 L8.61538462,28.4023669 C9.42011834,28.4497041 10.1301775,27.7869822 10.1301775,26.9822485 C10.1301775,26.9349112 10.1301775,26.887574 10.1301775,26.887574 L10.1301775,25.3727811 L30.2011834,25.3727811 L30.2011834,26.887574 C30.1538462,27.6923077 30.816568,28.4023669 31.6213018,28.4023669 C31.6686391,28.4023669 31.7159763,28.4023669 31.7159763,28.4023669 L35.3136095,28.4023669 C36.1183432,28.4497041 36.8284024,27.7869822 36.8284024,26.9822485 C36.8284024,26.9349112 36.8284024,26.887574 36.8284024,26.887574 L36.8284024,23.0532544 C38.2011834,21.7278107 38.9585799,19.9763314 39.0059172,18.0828402 C39.0532544,16.3786982 38.3905325,14.7218935 37.2071006,13.4911243 L38.4852071,13.4911243 C38.9585799,13.4911243 39.3846154,13.1597633 39.5266272,12.7337278 L40.0473373,9.9408284 C39.9526627,9.56213018 39.8106509,9.23076923 39.6686391,8.89940828 Z M10.1775148,5.20710059 C14.1538462,2.65088757 25.7514793,2.65088757 29.5857988,5.20710059 C30.3431953,5.72781065 31.3846154,7.76331361 32.2840237,10.1775148 L7.47928994,10.1775148 C8.37869822,7.76331361 9.42011834,5.72781065 10.1775148,5.20710059 Z M6.95857988,18.3668639 C6.95857988,17.0414201 8.04733728,15.9526627 9.37278107,15.9526627 C10.6982249,15.9526627 11.7869822,17.0414201 11.7869822,18.3668639 C11.7869822,19.6923077 10.6982249,20.7810651 9.37278107,20.7810651 C8.09467456,20.7337278 7.00591716,19.6923077 6.95857988,18.3668639 Z M30.3431953,20.7810651 C29.0177515,20.7810651 27.9289941,19.6923077 27.9289941,18.3668639 C27.9289941,17.0414201 29.0177515,15.9526627 30.3431953,15.9526627 C31.6686391,15.9526627 32.7573964,17.0414201 32.7573964,18.3668639 C32.7573964,19.6923077 31.6686391,20.7810651 30.3431953,20.7810651 Z" id="Pfad_113_2_"></path>
                                </g>
                                <path d="M33.3254438,48.7573964 C30.9585799,46.3431953 30.5325444,42.6508876 32.2366864,39.7633136 C31.5266272,39.7159763 30.9112426,39.1952663 30.7218935,38.4852071 L30.1538462,35.8816568 L14.9112426,35.8816568 C15.7159763,33.7514793 16.5680473,31.9526627 17.2781065,31.5266272 C20.7337278,29.3017751 30.9112426,29.3017751 34.2721893,31.5266272 C34.6035503,31.7159763 34.9822485,32.2366864 35.3609467,32.9940828 C35.7869822,32 36.260355,31.0059172 36.8284024,30.1065089 C36.5443787,29.7751479 36.260355,29.4911243 35.9763314,29.3017751 C31.7159763,26.5088757 20.3550296,26.5088757 16,29.3017751 C14.7692308,30.1065089 13.6331361,32.3313609 12.8757396,34.4615385 L9.5147929,34.4615385 C9.23076923,34.4615385 8.99408284,34.6035503 8.85207101,34.7928994 C8.66272189,35.0295858 8.56804734,35.3136095 8.61538462,35.5976331 L9.18343195,38.0591716 C9.27810651,38.4852071 9.65680473,38.7692308 10.0828402,38.7218935 L11.0769231,38.7218935 C8.99408284,41.183432 9.18343195,44.8757396 11.5029586,47.1005917 L11.5029586,50.556213 C11.4556213,51.2662722 12.0236686,51.8816568 12.7337278,51.8816568 C12.7810651,51.8816568 12.7810651,51.8816568 12.8284024,51.8816568 L15.9526627,51.8816568 C16.6627219,51.9289941 17.2781065,51.3609467 17.2781065,50.6508876 C17.2781065,50.6035503 17.2781065,50.6035503 17.2781065,50.556213 L17.2781065,49.2307692 L33.3254438,49.2307692 L33.3254438,48.7573964 Z M16.5680473,45.1597633 C15.4319527,45.112426 14.4852071,44.2130178 14.4378698,43.0295858 C14.4378698,41.8461538 15.3846154,40.8994083 16.5680473,40.8994083 C17.7514793,40.8994083 18.6982249,41.8461538 18.6982249,43.0295858 C18.6982249,44.2130178 17.7514793,45.1597633 16.5680473,45.1597633 Z" id="Shape" fill="#4F4F4E" fill-rule="nonzero"></path>
                                <g id="add-hi-copy-7" transform="translate(65.000000, 30.000000)">
                                    <circle id="Oval-2" stroke="#4F4F4E" stroke-width="2" fill="#E30018" cx="12" cy="12" r="12"></circle>
                                    <g id="Group-6" transform="translate(12.000000, 12.000000) rotate(-360.000000) translate(-12.000000, -12.000000) translate(8.000000, 8.000000)" stroke="#FFFFFF" stroke-linecap="round" stroke-linejoin="round" stroke-width="3">
                                        <path d="M0.266666667,0.266666667 L7.809139,7.809139" id="Line"></path>
                                        <path d="M0.266666667,0.266666667 L7.809139,7.809139" id="Line" transform="translate(4.000000, 4.000000) scale(-1, 1) translate(-4.000000, -4.000000) "></path>
                                    </g>
                                </g>
                            </g>
                        </g>
                    </g>
                </g>
            </g>
        </g>
    </g>
</svg>