<?xml version="1.0" encoding="UTF-8" standalone="no"?>
<svg width="80px" height="80px" viewBox="0 0 80 80" version="1.1" xmlns="http://www.w3.org/2000/svg" xmlns:xlink="http://www.w3.org/1999/xlink">
    <!-- Generator: Sketch 49.3 (51167) - http://www.bohemiancoding.com/sketch -->
    <title>wohnung</title>
    <desc>Created with Sketch.</desc>
    <defs></defs>
    <g id="Page-1" stroke="none" stroke-width="1" fill="none" fill-rule="evenodd">
        <g id="1-Eingaben:-Desktop" transform="translate(-473.000000, -300.000000)" fill="#4F4F4E" fill-rule="nonzero">
            <g id="Page" transform="translate(0.000000, 13.000000)">
                <g id="Selector" transform="translate(0.000000, 203.000000)">
                    <g id="sel" transform="translate(43.000000, 57.000000)">
                        <g id="sel-wohnung" transform="translate(405.000000, 0.000000)">
                            <g id="wohnung" transform="translate(25.000000, 27.000000)">
                                <path d="M39.8128655,79.625731 C17.871345,79.625731 0,61.754386 0,39.8128655 C0,17.871345 17.871345,0 39.8128655,0 C61.754386,0 79.625731,17.871345 79.625731,39.8128655 C79.625731,61.754386 61.754386,79.625731 39.8128655,79.625731 Z M39.8128655,2.94736842 C19.5087719,2.94736842 2.94736842,19.4619883 2.94736842,39.8128655 C2.94736842,60.1169591 19.4619883,76.6783626 39.8128655,76.6783626 C60.1169591,76.6783626 76.6783626,60.1637427 76.6783626,39.8128655 C76.6783626,19.4619883 60.1169591,2.94736842 39.8128655,2.94736842 Z" id="Shape"></path>
                                <g id="house" transform="translate(20.822924, 19.830175)">
                                    <path d="M37.6608187,20.0701754 L20.1169591,0.701754386 C19.8830409,0.421052632 19.5555556,0.233918129 19.1812865,0.233918129 C18.8538012,0.280701754 18.5263158,0.467836257 18.2923977,0.701754386 L13.754386,5.70760234 L13.754386,2.52631579 L9.87134503,2.52631579 L9.87134503,9.8245614 L0.514619883,19.8362573 C0.0935672515,20.2573099 0.0935672515,21.005848 0.514619883,21.4269006 C0.935672515,21.8479532 1.68421053,21.8479532 2.10526316,21.4269006 L18.0584795,3.88304094 C18.5263158,3.64912281 18.7602339,3.41520468 18.9473684,3.41520468 C19.1812865,3.41520468 19.4152047,3.64912281 19.8362573,3.88304094 L35.7894737,21.4269006 C36.0233918,21.7076023 36.3508772,21.8947368 36.6783626,21.8947368 C36.9122807,21.9415205 37.1929825,21.8479532 37.380117,21.6608187 C37.8479532,21.2397661 37.9415205,20.6315789 37.6608187,20.0701754 Z" id="Pfad_114"></path>
                                    <polygon id="Pfad_115" points="4.58479532 21.8947368 4.58479532 39.6725146 15.5321637 39.6725146 15.5321637 29.1929825 22.8304094 29.1929825 22.8304094 39.6725146 33.7777778 39.6725146 33.7777778 21.8947368 19.1812865 5.47368421"></polygon>
                                </g>
                            </g>
                        </g>
                    </g>
                </g>
            </g>
        </g>
    </g>
</svg>