<?xml version="1.0" encoding="UTF-8" standalone="no"?>
<svg width="90px" height="81px" viewBox="0 0 90 81" version="1.1" xmlns="http://www.w3.org/2000/svg" xmlns:xlink="http://www.w3.org/1999/xlink">
    <!-- Generator: Sketch 49.3 (51167) - http://www.bohemiancoding.com/sketch -->
    <title>vermietung</title>
    <desc>Created with Sketch.</desc>
    <defs></defs>
    <g id="Page-1" stroke="none" stroke-width="1" fill="none" fill-rule="evenodd">
        <g id="1-Eingaben:-Desktop" transform="translate(-608.000000, -301.000000)">
            <g id="Page" transform="translate(0.000000, 13.000000)">
                <g id="Selector" transform="translate(0.000000, 203.000000)">
                    <g id="sel" transform="translate(43.000000, 57.000000)">
                        <g id="sel-vermietung" transform="translate(540.000000, 1.000000)">
                            <g id="vermietung" transform="translate(25.000000, 27.000000)">
                                <path d="M39.9069767,80.2325581 C17.9069767,80.2325581 0,62.3255814 0,40.3255814 C0,18.3255814 17.9069767,0.418604651 39.9069767,0.418604651 C61.9069767,0.418604651 79.8139535,18.3255814 79.8139535,40.3255814 C79.8139535,62.3255814 61.9069767,80.2325581 39.9069767,80.2325581 Z M39.9069767,3.39534884 C19.5348837,3.39534884 2.97674419,19.9534884 2.97674419,40.3255814 C2.97674419,60.6976744 19.5348837,77.255814 39.9069767,77.255814 C60.2790698,77.255814 76.8372093,60.6976744 76.8372093,40.3255814 C76.8372093,20 60.2790698,3.39534884 39.9069767,3.39534884 Z" id="Shape" fill="#4F4F4E" fill-rule="nonzero"></path>
                                <g id="Group" transform="translate(17.674419, 18.139535)" fill="#4F4F4E" fill-rule="nonzero">
                                    <path d="M47.7209302,25.3023256 C47.5348837,24.7906977 47.3023256,24.3255814 47.2093023,23.7674419 C47.1162791,23.3488372 46.8372093,23.0232558 46.4651163,22.8837209 L29.0697674,15.1627907 C28.6511628,12.1860465 26.7906977,9.6744186 24.0930233,8.46511628 C20.9302326,7.06976744 17.255814,7.72093023 14.6976744,10.0465116 L13.9534884,10.744186 L14.9302326,10.8372093 C18.3255814,11.1162791 21.3953488,13.255814 22.8837209,16.3255814 C24,18.6976744 24.1395349,21.255814 23.3488372,23.627907 L23.0697674,24.6511628 L24,24.2325581 C24.5581395,24 25.0697674,23.6744186 25.5348837,23.3953488 L27.3488372,24.1860465 C27.627907,24.3255814 27.9534884,24.372093 28.2790698,24.2790698 L29.4418605,23.8604651 L30.9302326,24.5116279 C31.3488372,24.6511628 31.7674419,24.6511628 32.1395349,24.4186047 L33.0232558,23.8139535 L33.7209302,24.1395349 L33.7674419,24.7906977 C33.7674419,25.2093023 34.0465116,25.627907 34.4651163,25.9069767 L36.8837209,27.0232558 C37.2093023,27.2093023 37.627907,27.2093023 37.9534884,27.0232558 L38.9302326,26.5581395 L40.3255814,27.2093023 L40.7906977,28 C41.0232558,28.5116279 41.6744186,28.744186 42.2325581,28.6046512 L42.9767442,28.372093 L44.0465116,28.8837209 C44.1860465,28.9767442 44.3255814,29.0232558 44.5581395,29.0232558 C44.6511628,29.0232558 44.7906977,29.0232558 44.9302326,28.9767442 L46.2790698,28.5581395 C46.6511628,28.4651163 46.9767442,28.1860465 47.1162791,27.8604651 L47.7674419,26.4651163 C47.8604651,26 47.8604651,25.627907 47.7209302,25.3023256 Z" id="Shape"></path>
                                    <path d="M13.4883721,19.7674419 C13.8604651,19.6744186 14.1860465,19.3953488 14.372093,19.0697674 C14.5581395,18.6976744 14.5581395,18.2790698 14.4186047,17.9069767 C14.3255814,17.5348837 14.0465116,17.2093023 13.7209302,17.0697674 C13.3488372,16.8837209 12.9302326,16.8837209 12.5581395,17.0232558 C11.7674419,17.3023256 10.9302326,17.4883721 10.0930233,17.4883721 C6.18604651,17.4883721 3.02325581,14.3255814 3.02325581,10.4186047 C3.02325581,6.51162791 6.18604651,3.34883721 10.0930233,3.34883721 C12.6511628,3.34883721 14.9767442,4.69767442 16.2325581,6.93023256 C16.6511628,7.58139535 17.5348837,7.81395349 18.2790698,7.44186047 C18.9302326,7.02325581 19.1627907,6.13953488 18.7906977,5.44186047 C17.0232558,2.3255814 13.7209302,0.372093023 10.1395349,0.372093023 C4.65116279,0.372093023 0.139534884,4.8372093 0.139534884,10.372093 C0.139534884,15.8604651 4.60465116,20.372093 10.1395349,20.372093 C11.1162791,20.3255814 12.2325581,20.1395349 13.4883721,19.7674419 Z" id="Shape"></path>
                                    <path d="M21.3488372,25.255814 C22.9767442,22.7906977 23.1627907,19.5813953 21.8604651,16.8837209 C19.8139535,12.6046512 14.6511628,10.8372093 10.372093,12.8372093 C9.44186047,13.255814 8.60465116,13.9069767 7.90697674,14.6046512 L7.86046512,14.6976744 L7.53488372,15.627907 L7.90697674,15.7674419 C8.55813953,16.0465116 9.25581395,16.1860465 10,16.1860465 C10.6976744,16.1860465 11.4418605,16.0465116 12,15.8604651 C12.3255814,15.7674419 12.6511628,15.6744186 12.9767442,15.6744186 C14.0930233,15.6744186 15.0697674,16.372093 15.4418605,17.3488372 C15.9534884,18.7906977 15.255814,20.2790698 13.8604651,20.744186 C11.2093023,21.6744186 8.60465116,21.6744186 6.04651163,20.744186 L5.44186047,20.5116279 L5.48837209,21.1627907 C5.53488372,22.2325581 5.81395349,23.3023256 6.3255814,24.2790698 C7.58139535,26.9767442 10.2325581,28.7906977 13.255814,29.1162791 L14.1395349,30.9302326 L14.1860465,30.9767442 C14.3255814,31.1627907 14.5116279,31.3953488 14.744186,31.5348837 L16,32.0465116 L16.6976744,33.4883721 C16.8372093,33.8604651 17.2093023,34.1395349 17.6744186,34.2325581 L18.744186,34.372093 L19.0697674,35.0697674 L18.6511628,35.5813953 C18.372093,35.9534884 18.2790698,36.4186047 18.5116279,36.8837209 L19.6744186,39.3023256 C19.8139535,39.627907 20.1395349,39.8604651 20.4651163,39.9534884 L21.5348837,40.2325581 L22.1860465,41.5813953 L22,42.5116279 C21.9069767,43.1162791 22.2325581,43.627907 22.744186,43.8604651 L23.4883721,44.1395349 L24,45.255814 L24.0465116,45.3023256 C24.1395349,45.4883721 24.3255814,45.7209302 24.6511628,45.8604651 L25.9069767,46.4186047 C26.0930233,46.5116279 26.2790698,46.5581395 26.4651163,46.5581395 C26.6511628,46.5581395 26.8372093,46.5116279 27.0232558,46.4186047 L28.372093,45.7209302 C28.744186,45.5348837 28.9302326,45.255814 29.0232558,44.9302326 C29.2093023,44.3255814 29.3953488,43.8139535 29.5813953,43.4883721 C29.9534884,42.9302326 29.8139535,42.4651163 29.7209302,42.2790698 L21.3488372,25.255814 Z" id="Shape"></path>
                                </g>
                                <g id="add-hi-copy-5" transform="translate(65.000000, 29.000000)">
                                    <circle id="Oval-2" stroke="#4F4F4E" stroke-width="2" fill="#E30018" cx="12" cy="12" r="12"></circle>
                                    <g id="Group-6" transform="translate(8.000000, 8.000000)" stroke="#FFFFFF" stroke-linecap="round" stroke-linejoin="round" stroke-width="3">
                                        <path d="M0.266666667,0.266666667 L7.809139,7.809139" id="Line"></path>
                                        <path d="M0.266666667,0.266666667 L7.809139,7.809139" id="Line" transform="translate(4.000000, 4.000000) scale(-1, 1) translate(-4.000000, -4.000000) "></path>
                                    </g>
                                </g>
                            </g>
                        </g>
                    </g>
                </g>
            </g>
        </g>
    </g>
</svg>