<?xml version="1.0" encoding="UTF-8" standalone="no"?>
<svg width="80px" height="80px" viewBox="0 0 80 80" version="1.1" xmlns="http://www.w3.org/2000/svg" xmlns:xlink="http://www.w3.org/1999/xlink">
    <!-- Generator: Sketch 49.3 (51167) - http://www.bohemiancoding.com/sketch -->
    <title>beruf</title>
    <desc>Created with Sketch.</desc>
    <defs></defs>
    <g id="Page-1" stroke="none" stroke-width="1" fill="none" fill-rule="evenodd">
        <g id="1-Eingaben:-Desktop" transform="translate(-203.000000, -301.000000)" fill="#4F4F4E" fill-rule="nonzero">
            <g id="Page" transform="translate(0.000000, 13.000000)">
                <g id="Selector" transform="translate(0.000000, 203.000000)">
                    <g id="sel" transform="translate(43.000000, 57.000000)">
                        <g id="sel-beruf" transform="translate(135.000000, 1.000000)">
                            <g id="beruf" transform="translate(25.000000, 27.000000)">
                                <path d="M39.9064327,79.8128655 C17.9181287,79.8128655 0,61.8947368 0,39.9064327 C0,17.9181287 17.9181287,0 39.9064327,0 C61.8947368,0 79.8128655,17.9181287 79.8128655,39.9064327 C79.8128655,61.8947368 61.9415205,79.8128655 39.9064327,79.8128655 Z M39.9064327,2.94736842 C19.5087719,2.94736842 2.94736842,19.5555556 2.94736842,39.9064327 C2.94736842,60.2573099 19.5555556,76.8654971 39.9064327,76.8654971 C60.3040936,76.8654971 76.8654971,60.2573099 76.8654971,39.9064327 C76.8654971,19.5555556 60.3040936,2.94736842 39.9064327,2.94736842 Z" id="Shape"></path>
                                <path d="M21.6608187,22.1754386 L21.6608187,46.502924 L58.1988304,46.502924 L58.1988304,22.1754386 C58.1988304,21.6140351 57.7309942,21.1461988 57.1695906,21.1461988 L22.6900585,21.1461988 C22.128655,21.1461988 21.6608187,21.6140351 21.6608187,22.1754386 Z M23.6725146,23.1578947 L56.1403509,23.1578947 L56.1403509,43.4619883 L23.6725146,43.4619883 L23.6725146,23.1578947 Z" id="Shape"></path>
                                <path d="M58.1520468,48.5614035 L21.6608187,48.5614035 L17.9649123,57.7777778 C17.7777778,58.2923977 18.0584795,58.7134503 18.619883,58.7134503 L61.2397661,58.7134503 C61.8011696,58.7134503 62.0818713,58.2923977 61.8947368,57.7777778 L58.1520468,48.5614035 Z M35.1345029,56.6549708 L35.6023392,54.6432749 L44.2105263,54.6432749 L44.6783626,56.6549708 L35.1345029,56.6549708 Z" id="Shape"></path>
                            </g>
                        </g>
                    </g>
                </g>
            </g>
        </g>
    </g>
</svg>