<?xml version="1.0" encoding="UTF-8" standalone="no"?>
<svg width="90px" height="80px" viewBox="0 0 90 80" version="1.1" xmlns="http://www.w3.org/2000/svg" xmlns:xlink="http://www.w3.org/1999/xlink">
    <!-- Generator: Sketch 49.3 (51167) - http://www.bohemiancoding.com/sketch -->
    <title>privat copy 3</title>
    <desc>Created with Sketch.</desc>
    <defs></defs>
    <g id="Page-1" stroke="none" stroke-width="1" fill="none" fill-rule="evenodd">
        <g id="1-Eingaben:-Desktop" transform="translate(-68.000000, -301.000000)">
            <g id="Page" transform="translate(0.000000, 13.000000)">
                <g id="Selector" transform="translate(0.000000, 203.000000)">
                    <g id="sel-copy" transform="translate(43.000000, 57.000000)">
                        <g id="sel-privat" transform="translate(0.000000, 1.000000)">
                            <g id="Group-5">
                                <g id="privat-copy-3" transform="translate(25.000000, 27.000000)">
                                    <path d="M40,80 C17.9553467,80 0,62.0446533 0,40 C0,17.9553467 17.9553467,0 40,0 C62.0446533,0 80,17.9553467 80,40 C80,62.0446533 62.0916569,80 40,80 Z M40,2.91421857 C19.5534665,2.91421857 2.91421857,19.5534665 2.91421857,40 C2.91421857,60.4465335 19.5534665,77.0857814 40,77.0857814 C60.4465335,77.0857814 77.0857814,60.4465335 77.0857814,40 C77.0857814,19.5534665 60.4465335,2.91421857 40,2.91421857 Z" id="Shape" fill="#FFFFFF" fill-rule="nonzero"></path>
                                    <g id="Privat" transform="translate(22.666667, 18.000000)" fill="#FFFFFF" fill-rule="nonzero">
                                        <path d="M26.7360731,13.8623656 C29.252968,12.7268817 30.9150685,10.2193548 30.9625571,7.47526882 C31.0100457,3.64301075 27.9232877,0.47311828 24.0767123,0.425806452 C24.0292237,0.425806452 23.9342466,0.425806452 23.886758,0.425806452 C21.7497717,0.47311828 19.7077626,1.41935484 18.3305936,3.07526882 C21.7497717,4.82580645 23.886758,8.32688172 23.886758,12.111828 C23.8392694,15.0451613 22.5570776,17.883871 20.3251142,19.8236559 C24.5515982,22.8989247 26.7360731,28.6236559 27.8283105,33.2602151 C31.5799087,32.5978495 34.6666667,31.0365591 34.6666667,29.5225806 C34.6666667,25.311828 32.2447489,16.2752688 26.7360731,13.8623656 Z" id="Pfad_111"></path>
                                        <path d="M17.0009132,19.8236559 C20.0401826,18.4043011 21.9872146,15.4236559 22.0821918,12.111828 C22.0821918,7.38064516 18.2356164,3.50107527 13.4392694,3.50107527 C8.64292237,3.50107527 4.79634703,7.33333333 4.79634703,12.111828 C4.84383562,15.5182796 6.79086758,18.5935484 9.87762557,20.0602151 C3.656621,23.1354839 0.142465753,33.7333333 0.142465753,38.5591398 C0.142465753,41.4451613 6.79086758,43.8580645 13.4392694,43.8580645 C19.8502283,43.8580645 26.4986301,41.4451613 26.4986301,38.7956989 C26.7360731,33.6860215 23.8392694,22.6623656 17.0009132,19.8236559 Z" id="Pfad_112"></path>
                                    </g>
                                    <g id="add-hi" transform="translate(65.000000, 29.000000)" stroke="#FFFFFF">
                                        <circle id="Oval-2" stroke-width="2" fill="#7ED321" cx="12" cy="12" r="12"></circle>
                                        <g id="Group-6" transform="translate(12.000000, 12.000000) rotate(-315.000000) translate(-12.000000, -12.000000) translate(8.000000, 8.000000)" stroke-linecap="round" stroke-linejoin="round" stroke-width="3">
                                            <path d="M0.266666667,0.266666667 L7.809139,7.809139" id="Line"></path>
                                            <path d="M0.266666667,0.266666667 L7.809139,7.809139" id="Line" transform="translate(4.000000, 4.000000) scale(-1, 1) translate(-4.000000, -4.000000) "></path>
                                        </g>
                                    </g>
                                </g>
                            </g>
                        </g>
                    </g>
                </g>
            </g>
        </g>
    </g>
</svg>